<svg xmlns="http://www.w3.org/2000/svg" viewBox="0 0 512 512">
  <defs>
    <linearGradient id="bg" x1="0" y1="0" x2="0.3" y2="1">
      <stop offset="0%" stop-color="#22306b"/><stop offset="100%" stop-color="#0a0e20"/>
    </linearGradient>
    <linearGradient id="gold" x1="0" y1="0" x2="0.35" y2="1">
      <stop offset="0%" stop-color="#fff6cf"/><stop offset="38%" stop-color="#f6c945"/>
      <stop offset="100%" stop-color="#a9761a"/>
    </linearGradient>
    <radialGradient id="glow" cx="0.5" cy="0.42" r="0.55">
      <stop offset="0%" stop-color="#ffd76a" stop-opacity="0.55"/>
      <stop offset="100%" stop-color="#ffd76a" stop-opacity="0"/>
    </radialGradient>
  </defs>
  <rect width="512" height="512" rx="112" fill="url(#bg)"/>
  <circle cx="256" cy="230" r="180" fill="url(#glow)"/>
  <!-- Beş köşeli yıldız -->
  <path d="M256 62l52 108 119 17-86 84 20 118-105-56-105 56 20-118-86-84 119-17z"
        fill="url(#gold)" stroke="#5c3c05" stroke-width="10" stroke-linejoin="round"/>
  <path d="M256 104l38 79 87 13-63 61 15 86-77-41-77 41 15-86-63-61 87-13z"
        fill="#ffffff" opacity="0.14"/>
  <!-- Alt şerit -->
  <rect x="96" y="404" width="320" height="52" rx="26" fill="#0a0e20" stroke="url(#gold)" stroke-width="8"/>
  <text x="256" y="441" text-anchor="middle"
        font-family="'Arial Black', Impact, sans-serif" font-size="30" font-weight="900"
        letter-spacing="5" fill="url(#gold)">GAME</text>
</svg>
